<?xml version="1.0" encoding="UTF-8" standalone="no"?><!DOCTYPE svg PUBLIC "-//W3C//DTD SVG 1.1//EN" "http://www.w3.org/Graphics/SVG/1.1/DTD/svg11.dtd"><svg width="100%" height="100%" viewBox="0 0 636 717" version="1.1" xmlns="http://www.w3.org/2000/svg" xmlns:xlink="http://www.w3.org/1999/xlink" xml:space="preserve" xmlns:serif="http://www.serif.com/" style="fill-rule:evenodd;clip-rule:evenodd;stroke-linecap:round;stroke-linejoin:round;"><path d="M388.991,336.337c13,-54.667 -34.667,-102.336 -89.333,-89.336c-25.667,6.333 -46.667,27.334 -52.999,53.002c-13,54.667 34.665,102.33 89.332,89.33c26,-6.333 47,-27.33 53,-52.997Z" style="fill:none;fill-rule:nonzero;stroke:#fff;stroke-width:50px;"/><path d="M518.331,531.333c57,-53.333 92.667,-129 92.667,-213.333c0,-162.001 -131.33,-293 -292.997,-293c-161.668,0 -293.001,131.333 -293.001,293c0,84.667 36,161 93.667,214.333" style="fill:none;fill-rule:nonzero;stroke:#fff;stroke-width:50px;"/><path d="M184.66,443.327c-30.667,-32.667 -49.667,-76.667 -49.667,-125.333c0,-101 82,-183 183.001,-183c101,0 183,82 183,183c0,48.667 -19,92.333 -49.667,125.333" style="fill:none;fill-rule:nonzero;stroke:#fff;stroke-width:50px;"/><path d="M261.325,513.66l-47.999,59.667c-38,47.667 -4.333,118 56.666,118l95.667,0c61,0 95,-70.667 56.667,-118l-48,-59.667c-28.667,-36.333 -84,-36.333 -113,0Z" style="fill:none;fill-rule:nonzero;stroke:#fff;stroke-width:50px;"/></svg>